# xmcd
#
# Track frame offsets: 
#        150
#        16534
#        33109
#
# Disc length: 659 seconds
#
# Revision: 0
# Processed by: cddbd v1.5.2PL0 Copyright (c) Steve Scherf et al.
# Submitted via: ExactAudioCopy v0.95b4
#
DISCID=0f029103
DTITLE=Busta Rhymes - Don't Touch Me (Throw Water On Em)
DYEAR=2008
DGENRE=Hip Hop
TTITLE0=Don't Touch Me (Throw Water On Em) (Clean)
TTITLE1=Don't Touch Me (Throw Water On Em)
TTITLE2=Don't Touch Me (Throw Water On Em) (INST)
EXTD=
EXTT0=
EXTT1=
EXTT2=
PLAYORDER=
